<svg width="70" height="50" viewBox="0 0 70 50" fill="none" xmlns="http://www.w3.org/2000/svg">
    <path d="M31 30.886v1.16a.358.358 0 0 1-.1.26.343.343 0 0 1-.256.103h-1.871c-.17 1.091-.65 1.977-1.437 2.66-.787.681-1.811 1.098-3.073 1.25 1.24 1.348 2.943 3.378 5.111 6.09.104.121.119.25.045.386-.06.137-.167.205-.323.205h-2.172a.326.326 0 0 1-.278-.136c-2.272-2.78-4.12-4.944-5.546-6.489a.344.344 0 0 1-.1-.25v-1.443c0-.099.035-.184.106-.256a.34.34 0 0 1 .25-.108h1.248c.98 0 1.768-.163 2.366-.488.598-.326.978-.8 1.141-1.42h-4.755a.343.343 0 0 1-.256-.103.358.358 0 0 1-.1-.262v-1.159c0-.106.033-.193.1-.261a.343.343 0 0 1 .256-.102h4.6c-.424-.856-1.418-1.284-2.985-1.284h-1.615a.339.339 0 0 1-.25-.108.353.353 0 0 1-.106-.256v-1.511c0-.106.033-.194.1-.262a.343.343 0 0 1 .256-.102h9.265c.104 0 .19.034.257.102.066.069.1.156.1.262v1.159a.358.358 0 0 1-.1.261.343.343 0 0 1-.257.102h-2.594a3.97 3.97 0 0 1 .712 1.637h1.905c.104 0 .189.034.256.102.067.068.1.155.1.261z" fill="#EB5976"/>
    <path d="M63.965 0h-38.62c-1.6 0-3.136.627-4.267 1.743a5.912 5.912 0 0 0-1.768 4.21v13.095H6.034c-1.6 0-3.135.627-4.267 1.743A5.912 5.912 0 0 0 0 25v19.048c0 1.578.636 3.092 1.767 4.209A6.077 6.077 0 0 0 6.034 50h38.621c1.6 0 3.136-.627 4.267-1.743a5.912 5.912 0 0 0 1.768-4.21V30.953h13.276c1.6 0 3.135-.627 4.267-1.743A5.912 5.912 0 0 0 70 25V5.952a5.912 5.912 0 0 0-1.767-4.209A6.077 6.077 0 0 0 63.965 0zm-38.62 2.381h38.62c.96 0 1.882.376 2.56 1.046a3.547 3.547 0 0 1 1.061 2.525v1.19H21.724v-1.19c0-.947.382-1.855 1.06-2.525a3.646 3.646 0 0 1 2.56-1.046zm42.241 10.714H21.724V9.524h45.862v3.571zM48.276 29.68a9.707 9.707 0 0 1-5.613-2.714 9.475 9.475 0 0 1-2.75-5.536h4.742c.96 0 1.881.376 2.56 1.046A3.547 3.547 0 0 1 48.275 25v4.679zm-10.862-8.25a11.838 11.838 0 0 0 3.48 7.281 12.14 12.14 0 0 0 7.382 3.433v4.88a12.14 12.14 0 0 0-7.382 3.433 11.838 11.838 0 0 0-3.48 7.282H13.276a11.837 11.837 0 0 0-3.457-7.264 12.138 12.138 0 0 0-7.345-3.45v-4.881a12.14 12.14 0 0 0 7.382-3.433 11.838 11.838 0 0 0 3.48-7.281h24.078zm-31.38 0h4.744a9.475 9.475 0 0 1-2.752 5.536 9.707 9.707 0 0 1-5.612 2.714V25c0-.947.381-1.856 1.06-2.525a3.646 3.646 0 0 1 2.56-1.046zm-3.62 22.619v-4.679a9.708 9.708 0 0 1 5.612 2.714 9.475 9.475 0 0 1 2.752 5.536H6.034c-.96 0-1.88-.376-2.56-1.046a3.547 3.547 0 0 1-1.06-2.525zm42.241 3.571h-4.743a9.475 9.475 0 0 1 2.751-5.536 9.708 9.708 0 0 1 5.613-2.714v4.679c0 .947-.382 1.855-1.06 2.525a3.646 3.646 0 0 1-2.56 1.046zm19.31-19.048H50.69V25a5.912 5.912 0 0 0-1.768-4.209 6.077 6.077 0 0 0-4.267-1.743h-22.93v-3.572h45.861V25c0 .947-.381 1.856-1.06 2.525a3.646 3.646 0 0 1-2.56 1.046z" fill="#EB5976"/>
    <path d="M60.345 19.048c-.716 0-1.416.21-2.012.602-.595.392-1.06.95-1.333 1.602a3.527 3.527 0 0 0-.206 2.064c.14.693.484 1.329.99 1.828.507.5 1.152.84 1.855.978.702.138 1.43.067 2.091-.203a3.61 3.61 0 0 0 1.625-1.316 3.536 3.536 0 0 0-.45-4.51 3.646 3.646 0 0 0-2.56-1.045zm0 4.762c-.239 0-.472-.07-.67-.201a1.194 1.194 0 0 1-.445-.534 1.175 1.175 0 0 1 .261-1.298 1.213 1.213 0 0 1 1.316-.258c.22.09.409.243.541.439a1.18 1.18 0 0 1-.15 1.503 1.215 1.215 0 0 1-.853.349z" fill="#EB5976"/>
</svg>
